<svg width="95" height="38" viewBox="0 0 95 38" fill="none" xmlns="http://www.w3.org/2000/svg">
<g clip-path="url(#clip0)">
<path fill-rule="evenodd" clip-rule="evenodd" d="M27.7264 37.9736L5.68534 34.0995C4.82591 33.9541 4.24414 33.1211 4.40281 32.2617L9.2685 4.62772C9.41394 3.7683 10.2469 3.18653 11.1064 3.34519L33.1474 7.23246C34.0068 7.3779 34.5886 8.21088 34.4299 9.07031L29.5643 36.7043C29.4056 37.5505 28.5858 38.1323 27.7264 37.9736Z" fill="url(#paint0_linear)"/>
<path fill-rule="evenodd" clip-rule="evenodd" d="M28.6521 34.4829H6.28049C5.40784 34.4829 4.69385 33.7689 4.69385 32.8963V4.8392C4.69385 3.96655 5.40784 3.25256 6.28049 3.25256H28.6521C29.5247 3.25256 30.2387 3.96655 30.2387 4.8392V32.8963C30.2387 33.7689 29.5247 34.4829 28.6521 34.4829Z" fill="url(#paint1_radial)"/>
<path fill-rule="evenodd" clip-rule="evenodd" d="M28.7707 30.777L6.72965 34.6643C5.87022 34.8097 5.03723 34.2412 4.89179 33.3818L0.0260994 5.74781C-0.132564 4.88838 0.449203 4.0554 1.30863 3.90995L23.3497 0.0226889C24.2091 -0.122753 25.0421 0.445793 25.1876 1.30522L30.0532 28.9392C30.2119 29.7986 29.6301 30.6184 28.7707 30.777Z" fill="url(#paint2_radial)"/>
<path d="M14.4384 19.1058L7.19276 20.3883C6.47877 20.5206 5.79123 20.0314 5.67223 19.3174L4.23103 11.1065C4.19137 10.8421 4.36325 10.6041 4.61447 10.5512L11.4238 9.34799C12.1246 9.22899 12.7857 9.69176 12.9047 10.3925L14.4384 19.1058Z" fill="#4E336B"/>
<path d="M10.6173 19.7801L13.0766 19.3437L12.3626 15.3375C11.9131 12.7988 9.49347 11.1064 6.96807 11.556L4.42944 12.0055C4.42944 12.1245 4.42944 12.2303 4.45589 12.3493L5.07732 15.906C5.52687 18.5107 8.0126 20.2428 10.6173 19.7801Z" fill="#4E336B"/>
<path d="M17.2812 18.6033L24.5268 17.3208C25.2408 17.1886 25.7168 16.5143 25.5978 15.8003L24.1434 7.58941C24.1037 7.32497 23.8525 7.15308 23.5881 7.20597L16.7788 8.40917C16.078 8.52817 15.6152 9.20249 15.7342 9.89004L17.2812 18.6033Z" fill="#4E336B"/>
<path d="M21.1023 17.9422L18.643 18.3785L17.929 14.359C17.4795 11.8204 19.1719 9.40077 21.7105 8.96444L24.2491 8.51489C24.2888 8.62067 24.3285 8.72644 24.3417 8.84544L24.9631 12.4022C25.4391 14.9937 23.707 17.4794 21.1023 17.9422Z" fill="#4E336B"/>
<path d="M10.5114 21.446C10.4982 21.446 10.4982 21.446 10.485 21.446C9.69168 21.6047 9.57268 22.6492 10.2338 23.112C10.842 23.5219 11.3048 24.183 11.4502 24.9895C11.5428 25.5184 11.5163 26.0605 11.3577 26.5365C11.2915 26.7613 11.5295 26.9728 11.7411 26.8803C12.9178 26.3514 13.8566 25.0424 13.6186 23.7334C13.3409 22.2129 11.9526 21.1816 10.5114 21.446Z" fill="#4E336B"/>
<path d="M13.6186 23.7467C13.3409 22.2129 11.9394 21.1816 10.5114 21.446C10.4982 21.446 10.4982 21.446 10.485 21.446C9.69168 21.6047 9.57268 22.6492 10.2338 23.112C10.7759 23.469 11.1858 24.0375 11.3841 24.7119C11.8072 24.8837 12.2435 25.0292 12.7063 25.135C12.9311 25.1878 13.1426 25.2672 13.3542 25.3465C13.6054 24.8573 13.7244 24.302 13.6186 23.7467Z" fill="#4E336B"/>
<path d="M21.7634 19.4627C21.7766 19.4627 21.7766 19.4627 21.7899 19.4627C22.5832 19.3305 23.0592 20.2825 22.5832 20.9436C22.1469 21.5386 21.9485 22.3187 22.0807 23.1252C22.1733 23.6541 22.3848 24.1565 22.7022 24.5532C22.8476 24.7383 22.689 25.016 22.4642 25.0028C21.1816 24.9102 19.8462 23.9979 19.6347 22.6889C19.3702 21.1552 20.3222 19.714 21.7634 19.4627Z" fill="#4E336B"/>
<path d="M21.7899 19.4627C21.7767 19.4627 21.7767 19.4627 21.7635 19.4627C20.3223 19.7007 19.3703 21.1419 19.6215 22.6889C19.714 23.2178 19.9917 23.6806 20.3619 24.0508C20.3751 24.0376 20.4016 24.0243 20.4148 24.0111C21.023 23.6673 21.5651 23.2707 22.0411 22.8343C21.9882 22.1336 22.1866 21.4593 22.57 20.9436C23.0592 20.2825 22.5832 19.3305 21.7899 19.4627Z" fill="#4E336B"/>
<path d="M24.117 16.6465C23.4956 13.1163 19.2381 10.9082 14.5972 11.728C9.96949 12.5477 6.71688 16.078 7.33831 19.6083C7.76142 22.0014 9.85049 23.7732 12.5742 24.4211C13.4733 24.6326 14.2534 25.1879 14.8352 25.9019C15.8004 27.1051 17.2945 27.9778 19.053 28.3744C19.529 28.4802 20.0579 28.4009 20.4413 28.0836C21.1156 27.5282 21.1553 26.5895 20.6529 25.9416C20.3091 25.5053 20.0446 25.0028 19.8463 24.474C19.6877 24.0244 19.8728 23.522 20.2826 23.284C22.9799 21.7767 24.5666 19.2116 24.117 16.6465Z" fill="#4E336B"/>
<path d="M24.1169 16.6464C23.4955 13.1162 19.6082 13.0368 14.9805 13.8566C10.3528 14.6764 6.71678 16.0647 7.35144 19.6082C7.77454 22.0013 9.86362 23.7731 12.5873 24.421C13.4864 24.6325 14.2665 25.1878 14.8483 25.9018C15.8135 27.105 17.3076 27.9777 19.0661 28.3743C19.5421 28.4801 20.071 28.4008 20.4544 28.0835C21.1288 27.5281 21.1684 26.5894 20.666 25.9415C20.3222 25.5052 20.0578 25.0027 19.8594 24.4739C19.7008 24.0243 19.8859 23.5219 20.2958 23.2839C22.9798 21.7766 24.5665 19.2115 24.1169 16.6464Z" fill="#4E336B"/>
<path d="M11.6486 20.6792C12.0502 20.6792 12.3758 20.3536 12.3758 19.9519C12.3758 19.5503 12.0502 19.2247 11.6486 19.2247C11.247 19.2247 10.9214 19.5503 10.9214 19.9519C10.9214 20.3536 11.247 20.6792 11.6486 20.6792Z" fill="#4E336B"/>
<path d="M19.6347 19.2645C20.0363 19.2645 20.3619 18.9389 20.3619 18.5373C20.3619 18.1356 20.0363 17.8101 19.6347 17.8101C19.2331 17.8101 18.9075 18.1356 18.9075 18.5373C18.9075 18.9389 19.2331 19.2645 19.6347 19.2645Z" fill="#4E336B"/>
<path d="M16.0912 24.54C15.3243 23.2575 15.1524 21.8692 15.5227 20.9304C15.7078 20.4809 15.245 20.0181 14.8219 20.2561C14.8219 20.2561 14.8087 20.2561 14.8087 20.2693C13.6584 20.9568 13.5923 22.9666 14.65 24.7516C15.0731 25.4655 15.6152 26.0341 16.197 26.4175C16.7391 26.7745 17.3341 26.0473 16.8845 25.5845C16.5936 25.2937 16.316 24.9367 16.0912 24.54Z" fill="#4E336B"/>
<path d="M17.9027 27.3564C18.151 27.3564 18.3522 27.1551 18.3522 26.9068C18.3522 26.6585 18.151 26.4573 17.9027 26.4573C17.6544 26.4573 17.4531 26.6585 17.4531 26.9068C17.4531 27.1551 17.6544 27.3564 17.9027 27.3564Z" fill="#4E336B"/>
<path d="M19.5685 27.4357C19.595 27.6076 19.4892 27.7662 19.3173 27.7927C19.1454 27.8191 18.9868 27.7133 18.9603 27.5414C18.9339 27.3696 19.0397 27.2109 19.2116 27.1845C19.3834 27.158 19.5421 27.2638 19.5685 27.4357Z" fill="#4E336B"/>
<path d="M13.0898 21.1551C13.156 21.5518 12.7064 21.9484 12.0982 22.0542C11.4768 22.16 10.9214 21.9352 10.8553 21.5385C10.7892 21.1419 11.2388 20.7452 11.847 20.6394C12.4684 20.5337 13.0237 20.7717 13.0898 21.1551Z" fill="#4E336B"/>
<path d="M21.4858 19.6743C21.552 20.0709 21.1024 20.4676 20.4942 20.5734C19.8728 20.6791 19.3174 20.4544 19.2513 20.0577C19.1852 19.661 19.6348 19.2644 20.243 19.1586C20.8644 19.0528 21.4197 19.2908 21.4858 19.6743Z" fill="#4E336B"/>
<path d="M13.7245 18.4446L6.47889 19.7272C5.76491 19.8594 5.07736 19.3702 4.95836 18.6562L3.51717 10.4453C3.4775 10.1809 3.64939 9.9429 3.9006 9.89002L10.7099 8.70004C11.4107 8.58104 12.0718 9.04381 12.1908 9.74457L13.7245 18.4446Z" fill="url(#paint3_linear)"/>
<path d="M9.90351 19.119L12.3628 18.6827L11.6488 14.6765C11.1993 12.1378 8.77964 10.4454 6.25424 10.895L3.70239 11.3313C3.70239 11.4503 3.70239 11.5561 3.72884 11.6751L4.35027 15.2318C4.82626 17.8497 7.29877 19.5818 9.90351 19.119Z" fill="url(#paint4_linear)"/>
<path d="M16.5673 17.9422L23.813 16.6597C24.527 16.5274 25.003 15.8531 24.884 15.1391L23.4295 6.92828C23.3899 6.66384 23.1387 6.49195 22.8742 6.54484L16.0649 7.74804C15.3641 7.86704 14.9014 8.54136 15.0203 9.2289L16.5673 17.9422Z" fill="url(#paint5_linear)"/>
<path d="M20.3884 17.2679L17.9291 17.7042L17.2152 13.6847C16.7656 11.1461 18.458 8.72645 20.9966 8.29012L23.5353 7.84058C23.5749 7.94635 23.6146 8.05213 23.6278 8.17113L24.2493 11.7278C24.7385 14.3326 22.9932 16.8183 20.3884 17.2679Z" fill="url(#paint6_linear)"/>
<path d="M9.81076 20.7849C9.79754 20.7849 9.79754 20.7849 9.78432 20.7849C8.991 20.9436 8.872 21.9881 9.5331 22.4509C10.1413 22.8608 10.6041 23.5219 10.7495 24.3284C10.8421 24.8573 10.8156 25.3994 10.657 25.8754C10.5909 26.1001 10.8289 26.3117 11.0404 26.2191C12.2172 25.6903 13.1559 24.3813 12.9179 23.0723C12.6403 21.5518 11.2387 20.5205 9.81076 20.7849Z" fill="url(#paint7_linear)"/>
<path d="M12.9179 23.0855C12.6403 21.5518 11.2387 20.5205 9.81076 20.7849C9.79754 20.7849 9.79754 20.7849 9.78432 20.7849C8.991 20.9436 8.872 21.9881 9.5331 22.4509C10.0752 22.8079 10.4851 23.3764 10.6834 24.0507C11.1065 24.2226 11.5428 24.3681 12.0056 24.4738C12.2304 24.5267 12.4419 24.606 12.6535 24.6854C12.8915 24.1962 13.0237 23.6408 12.9179 23.0855Z" fill="url(#paint8_linear)"/>
<path d="M21.0626 18.8016C21.0758 18.8016 21.0758 18.8016 21.0891 18.8016C21.8824 18.6694 22.3584 19.6214 21.8824 20.2825C21.4461 20.8775 21.2477 21.6576 21.38 22.4641C21.4725 22.993 21.6841 23.4954 22.0014 23.8921C22.1468 24.0772 21.9882 24.3548 21.7634 24.3416C20.4809 24.2491 19.1454 23.3368 18.9339 22.0278C18.6562 20.494 19.6214 19.0528 21.0626 18.8016Z" fill="url(#paint9_linear)"/>
<path d="M21.076 18.8016C21.0628 18.8016 21.0628 18.8016 21.0496 18.8016C19.6084 19.0396 18.6564 20.4808 18.9076 22.0278C19.0002 22.5567 19.2778 23.0194 19.6481 23.3896C19.6613 23.3764 19.6877 23.3632 19.7009 23.35C20.3092 23.0062 20.8513 22.6095 21.3272 22.1732C21.2744 21.4725 21.4727 20.7981 21.8561 20.2825C22.3586 19.6214 21.8826 18.6694 21.076 18.8016Z" fill="url(#paint10_linear)"/>
<path d="M23.4032 15.9854C22.7817 12.4551 18.5242 10.2471 13.8833 11.0668C9.25562 11.8866 6.00301 15.4169 6.62444 18.9471C7.04755 21.3403 9.13662 23.1121 11.8604 23.7599C12.7594 23.9715 13.5395 24.5268 14.1213 25.2408C15.0865 26.444 16.5806 27.3167 18.3391 27.7133C18.8151 27.8191 19.344 27.7398 19.7274 27.4224C20.4018 26.8671 20.4414 25.9283 19.939 25.2805C19.5952 24.8441 19.3308 24.3417 19.1324 23.8128C18.9738 23.3633 19.1589 22.8608 19.5688 22.6228C22.2661 21.1155 23.8659 18.5505 23.4032 15.9854Z" fill="url(#paint11_linear)"/>
<path d="M23.4031 15.9854C22.7816 12.4552 18.8944 12.3758 14.2667 13.1956C9.63896 14.0154 6.00292 15.4037 6.63757 18.9472C7.06068 21.3403 9.14975 23.1121 11.8735 23.76C12.7726 23.9715 13.5527 24.5268 14.1344 25.2408C15.0996 26.444 16.5937 27.3167 18.3523 27.7133C18.8282 27.8191 19.3571 27.7398 19.7406 27.4224C20.4149 26.8671 20.4546 25.9284 19.9521 25.2805C19.6083 24.8442 19.3439 24.3417 19.1456 23.8128C18.9869 23.3633 19.172 22.8609 19.5819 22.6229C22.266 21.1156 23.8658 18.5505 23.4031 15.9854Z" fill="url(#paint12_linear)"/>
<path d="M10.9479 20.0181C11.3495 20.0181 11.6751 19.6926 11.6751 19.2909C11.6751 18.8893 11.3495 18.5637 10.9479 18.5637C10.5463 18.5637 10.2207 18.8893 10.2207 19.2909C10.2207 19.6926 10.5463 20.0181 10.9479 20.0181Z" fill="white"/>
<path d="M18.9208 18.6033C19.3224 18.6033 19.648 18.2778 19.648 17.8761C19.648 17.4745 19.3224 17.1489 18.9208 17.1489C18.5192 17.1489 18.1936 17.4745 18.1936 17.8761C18.1936 18.2778 18.5192 18.6033 18.9208 18.6033Z" fill="white"/>
<path d="M15.3773 23.879C14.6105 22.5965 14.4386 21.2081 14.8088 20.2694C14.9939 19.8198 14.5311 19.3571 14.108 19.5951C14.108 19.5951 14.0948 19.5951 14.0948 19.6083C12.9445 20.2958 12.8784 22.3056 13.9361 24.0905C14.3592 24.8045 14.9013 25.3731 15.4831 25.7565C16.0252 26.1135 16.6202 25.3863 16.1707 24.9235C15.8798 24.6326 15.6153 24.2757 15.3773 23.879Z" fill="url(#paint13_linear)"/>
<path d="M17.1888 26.6952C17.4371 26.6952 17.6384 26.494 17.6384 26.2457C17.6384 25.9974 17.4371 25.7961 17.1888 25.7961C16.9405 25.7961 16.7393 25.9974 16.7393 26.2457C16.7393 26.494 16.9405 26.6952 17.1888 26.6952Z" fill="url(#paint14_linear)"/>
<path d="M18.8679 26.7745C18.8943 26.9464 18.7885 27.1051 18.6166 27.1315C18.4448 27.158 18.2861 27.0522 18.2597 26.8803C18.2332 26.7084 18.339 26.5498 18.5109 26.5233C18.6695 26.4969 18.8282 26.6027 18.8679 26.7745Z" fill="url(#paint15_linear)"/>
<path d="M12.3892 20.4941C12.4553 20.8907 12.0057 21.2874 11.3975 21.3932C10.7761 21.499 10.2208 21.2742 10.1546 20.8775C10.0885 20.4809 10.5381 20.0842 11.1463 19.9784C11.7545 19.8727 12.3231 20.1107 12.3892 20.4941Z" fill="url(#paint16_linear)"/>
<path d="M20.772 19.0133C20.8381 19.4099 20.3885 19.8066 19.7803 19.9124C19.1589 20.0181 18.6036 19.7934 18.5375 19.3967C18.4713 19 18.9209 18.6034 19.5291 18.4976C20.1505 18.3918 20.7059 18.6298 20.772 19.0133Z" fill="url(#paint17_linear)"/>
</g>
<path d="M47.6827 14.1528C44.2362 14.1528 40.8675 16.6146 40.8675 21.1495C40.8675 25.6325 44.1844 28.1461 47.89 28.1461C50.2741 28.1461 52.2176 27.1614 53.3318 25.7621L51.7511 24.0777C50.7664 24.9328 49.6003 25.2956 48.2787 25.2956C46.2575 25.2956 44.6508 24.3368 44.1585 22.497H54.2388C54.9903 16.5628 51.1033 14.1528 47.6827 14.1528ZM47.7086 17.081C49.3412 17.081 50.9478 18.0398 51.1551 19.9574H44.1067C44.5472 18.0139 46.102 17.081 47.7086 17.081ZM64.1712 14.1528C61.7612 14.1528 60.2064 15.4744 59.8695 16.2259H59.7918V9.48839H56.3194V27.887H59.7918V26.073H59.8695C60.2064 26.8245 61.7612 28.1461 64.1712 28.1461C67.3067 28.1461 70.6495 25.8139 70.6495 21.1495C70.6495 16.485 67.3067 14.1528 64.1712 14.1528ZM63.4715 25.0365C61.5021 25.0365 59.7141 23.689 59.7141 21.1495C59.7141 18.6099 61.5021 17.2624 63.4715 17.2624C65.3891 17.2624 67.203 18.6359 67.203 21.1495C67.203 23.6631 65.3891 25.0365 63.4715 25.0365ZM80.4936 14.1528C78.0837 14.1528 76.5289 15.4744 76.192 16.2259H76.1142V9.48839H72.6418V27.887H76.1142V26.073H76.192C76.5289 26.8245 78.0837 28.1461 80.4936 28.1461C83.6292 28.1461 86.972 25.8139 86.972 21.1495C86.972 16.485 83.6292 14.1528 80.4936 14.1528ZM79.794 25.0365C77.8245 25.0365 76.0365 23.689 76.0365 21.1495C76.0365 18.6099 77.8245 17.2624 79.794 17.2624C81.7116 17.2624 83.5255 18.6359 83.5255 21.1495C83.5255 23.6631 81.7116 25.0365 79.794 25.0365ZM88.9643 12.5462H92.4367V9.48839H88.9643V12.5462ZM88.9643 27.887H92.4367V14.412H88.9643V27.887Z" fill="#FFF2EA"/>
<defs>
<linearGradient id="paint0_linear" x1="5.46468" y1="9.514" x2="32.2659" y2="30.9273" gradientUnits="userSpaceOnUse">
<stop offset="0.00364583" stop-color="#FAC94C"/>
<stop offset="0.5243" stop-color="#FAC94C"/>
<stop offset="1" stop-color="#EB6D3F"/>
</linearGradient>
<radialGradient id="paint1_radial" cx="0" cy="0" r="1" gradientUnits="userSpaceOnUse" gradientTransform="translate(17.4686 18.8694) scale(14.2659 24.4646)">
<stop offset="0.00558659" stop-color="#4A97D3"/>
<stop offset="0.5887" stop-color="#2DA5DA"/>
<stop offset="0.7098" stop-color="#208FCC"/>
<stop offset="0.8373" stop-color="#1C7BBF"/>
<stop offset="0.9078" stop-color="#1C73BA"/>
</radialGradient>
<radialGradient id="paint2_radial" cx="0" cy="0" r="1" gradientUnits="userSpaceOnUse" gradientTransform="translate(15.0418 17.3419) rotate(-9.99736) scale(18.5758 20.366)">
<stop offset="0.0251397" stop-color="#806BAD"/>
<stop offset="0.4323" stop-color="#6D4997"/>
<stop offset="0.4992" stop-color="#664897"/>
<stop offset="0.7087" stop-color="#534596"/>
<stop offset="0.8464" stop-color="#4C4495"/>
</radialGradient>
<linearGradient id="paint3_linear" x1="3.72372" y1="-13.3304" x2="14.9617" y2="50.4204" gradientUnits="userSpaceOnUse">
<stop offset="0.00364583" stop-color="#FAB968"/>
<stop offset="0.5243" stop-color="#F28A1D"/>
<stop offset="1" stop-color="#E52C20"/>
</linearGradient>
<linearGradient id="paint4_linear" x1="1.23269" y1="28.7825" x2="11.6818" y2="7.62917" gradientUnits="userSpaceOnUse">
<stop offset="0.00364583" stop-color="#FAB968"/>
<stop offset="0.5243" stop-color="#F28A1D"/>
<stop offset="1" stop-color="#E52C20"/>
</linearGradient>
<linearGradient id="paint5_linear" x1="15.1026" y1="-15.3296" x2="26.3406" y2="48.4212" gradientUnits="userSpaceOnUse">
<stop offset="0.00364583" stop-color="#FAB968"/>
<stop offset="0.5243" stop-color="#F28A1D"/>
<stop offset="1" stop-color="#E52C20"/>
</linearGradient>
<linearGradient id="paint6_linear" x1="31.8433" y1="23.393" x2="14.791" y2="7.08756" gradientUnits="userSpaceOnUse">
<stop offset="0.00364583" stop-color="#FAB968"/>
<stop offset="0.5243" stop-color="#F28A1D"/>
<stop offset="1" stop-color="#E52C20"/>
</linearGradient>
<linearGradient id="paint7_linear" x1="8.1395" y1="16.867" x2="18.3279" y2="38.0317" gradientUnits="userSpaceOnUse">
<stop stop-color="white"/>
<stop offset="0.516" stop-color="#CDE2E6"/>
<stop offset="1" stop-color="#90A1BB"/>
</linearGradient>
<linearGradient id="paint8_linear" x1="7.59752" y1="28.4314" x2="12.6648" y2="20.0825" gradientUnits="userSpaceOnUse">
<stop stop-color="white"/>
<stop offset="0.516" stop-color="#CDE2E6"/>
<stop offset="1" stop-color="#90A1BB"/>
</linearGradient>
<linearGradient id="paint9_linear" x1="21.2777" y1="14.5486" x2="18.9431" y2="37.9215" gradientUnits="userSpaceOnUse">
<stop stop-color="white"/>
<stop offset="0.516" stop-color="#CDE2E6"/>
<stop offset="1" stop-color="#90A1BB"/>
</linearGradient>
<linearGradient id="paint10_linear" x1="22.2369" y1="27.0218" x2="20.19" y2="19.7436" gradientUnits="userSpaceOnUse">
<stop stop-color="white"/>
<stop offset="0.516" stop-color="#CDE2E6"/>
<stop offset="1" stop-color="#90A1BB"/>
</linearGradient>
<linearGradient id="paint11_linear" x1="12.8535" y1="5.17966" x2="15.8981" y2="22.4508" gradientUnits="userSpaceOnUse">
<stop offset="0.00364583" stop-color="#F59B38"/>
<stop offset="0.5298" stop-color="#F28D20"/>
<stop offset="1" stop-color="#EE711E"/>
</linearGradient>
<linearGradient id="paint12_linear" x1="18.6765" y1="38.213" x2="12.3254" y2="2.1845" gradientUnits="userSpaceOnUse">
<stop offset="0.00364583" stop-color="#FAB968"/>
<stop offset="0.5243" stop-color="#F28A1D"/>
<stop offset="1" stop-color="#E52C20"/>
</linearGradient>
<linearGradient id="paint13_linear" x1="12.2205" y1="25.9937" x2="22.1932" y2="14.3626" gradientUnits="userSpaceOnUse">
<stop offset="0.00364583" stop-color="#F59E3C"/>
<stop offset="0.5243" stop-color="#F59A37"/>
<stop offset="1" stop-color="#F39228"/>
</linearGradient>
<linearGradient id="paint14_linear" x1="15.3204" y1="28.5242" x2="25.0251" y2="16.6689" gradientUnits="userSpaceOnUse">
<stop offset="0.00364583" stop-color="#FAB968"/>
<stop offset="0.5243" stop-color="#F28A1D"/>
<stop offset="1" stop-color="#E52C20"/>
</linearGradient>
<linearGradient id="paint15_linear" x1="16.4244" y1="29.4282" x2="26.1295" y2="17.5724" gradientUnits="userSpaceOnUse">
<stop offset="0.00364583" stop-color="#F59E3C"/>
<stop offset="0.5243" stop-color="#F59A37"/>
<stop offset="1" stop-color="#F28B1B"/>
</linearGradient>
<linearGradient id="paint16_linear" x1="10.5732" y1="16.7855" x2="12.1679" y2="25.8317" gradientUnits="userSpaceOnUse">
<stop offset="0.00364583" stop-color="#F59D3B"/>
<stop offset="0.5243" stop-color="#F28E21"/>
<stop offset="1" stop-color="#EE701E"/>
</linearGradient>
<linearGradient id="paint17_linear" x1="18.9648" y1="15.3063" x2="20.5594" y2="24.3525" gradientUnits="userSpaceOnUse">
<stop offset="0.00364583" stop-color="#F59D3B"/>
<stop offset="0.5243" stop-color="#F28E21"/>
<stop offset="1" stop-color="#EE701E"/>
</linearGradient>
<clipPath id="clip0">
<rect width="34.4565" height="38" fill="white"/>
</clipPath>
</defs>
</svg>
