<svg width="70" height="77" viewBox="0 0 70 77" fill="none" xmlns="http://www.w3.org/2000/svg">
<g clip-path="url(#clip0)">
<path fill-rule="evenodd" clip-rule="evenodd" d="M55.8765 76.5268L11.458 68.7196C9.72606 68.4265 8.55365 66.7478 8.8734 65.0159L18.679 9.3262C18.9721 7.59423 20.6508 6.42181 22.3828 6.74156L66.8013 14.5754C68.5333 14.8685 69.7057 16.5472 69.3859 18.2792L59.5803 73.9688C59.2605 75.6742 57.6085 76.8466 55.8765 76.5268Z" fill="url(#paint0_linear)"/>
<path fill-rule="evenodd" clip-rule="evenodd" d="M57.7416 69.492H12.657C10.8983 69.492 9.45947 68.0531 9.45947 66.2945V9.75218C9.45947 7.99356 10.8983 6.55469 12.657 6.55469H57.7416C59.5002 6.55469 60.9391 7.99356 60.9391 9.75218V66.2945C60.9391 68.0531 59.5002 69.492 57.7416 69.492Z" fill="url(#paint1_radial)"/>
<path fill-rule="evenodd" clip-rule="evenodd" d="M57.9815 62.0326L13.563 69.8664C11.831 70.1595 10.1523 69.0138 9.85922 67.2818L0.0535737 11.5921C-0.266176 9.86015 0.906238 8.18147 2.63821 7.88837L47.0567 0.0545131C48.7887 -0.23859 50.4674 0.907177 50.7605 2.63915L60.5661 58.3288C60.8859 60.0608 59.7134 61.7128 57.9815 62.0326Z" fill="url(#paint2_radial)"/>
<path d="M29.0971 38.5029L14.4953 41.0876C13.0564 41.354 11.6708 40.3681 11.431 38.9293L8.52661 22.3822C8.44667 21.8493 8.79307 21.3697 9.29934 21.2631L23.0219 18.8383C24.4341 18.5985 25.7664 19.5311 26.0062 20.9434L29.0971 38.5029Z" fill="#4E336B"/>
<path d="M21.3965 39.8615L26.3526 38.9822L24.9137 30.9086C24.0078 25.7926 19.1316 22.3819 14.0423 23.2879L8.92627 24.1938C8.92627 24.4336 8.92627 24.6468 8.97956 24.8866L10.2319 32.0543C11.1379 37.3035 16.1473 40.7941 21.3965 39.8615Z" fill="#4E336B"/>
<path d="M34.826 37.4904L49.4279 34.9057C50.8668 34.6393 51.826 33.2803 51.5862 31.8415L48.6552 15.2944C48.5752 14.7615 48.069 14.4151 47.536 14.5217L33.8135 16.9465C32.4013 17.1863 31.4687 18.5452 31.7085 19.9308L34.826 37.4904Z" fill="#4E336B"/>
<path d="M42.5266 36.1581L37.5705 37.0374L36.1316 28.9371C35.2257 23.8211 38.6363 18.9449 43.7523 18.0656L48.8683 17.1597C48.9482 17.3728 49.0282 17.586 49.0548 17.8258L50.3072 24.9935C51.2664 30.2161 47.7758 35.2255 42.5266 36.1581Z" fill="#4E336B"/>
<path d="M21.1836 43.2191C21.1569 43.2191 21.1569 43.2191 21.1303 43.2191C19.5315 43.5389 19.2917 45.6439 20.624 46.5765C21.8497 47.4025 22.7823 48.7348 23.0754 50.3602C23.2619 51.426 23.2086 52.5185 22.8889 53.4777C22.7557 53.9307 23.2353 54.3571 23.6616 54.1705C26.0331 53.1047 27.9249 50.4668 27.4453 47.8288C26.8858 44.7646 24.088 42.6862 21.1836 43.2191Z" fill="#4E336B"/>
<path d="M27.4453 47.8555C26.8858 44.7646 24.0613 42.6862 21.1836 43.2191C21.1569 43.2191 21.1569 43.2191 21.1303 43.2191C19.5315 43.5388 19.2917 45.6439 20.624 46.5765C21.7165 47.2959 22.5425 48.4417 22.9422 49.8006C23.7949 50.147 24.6742 50.4401 25.6068 50.6533C26.0597 50.7598 26.4861 50.9197 26.9124 51.0796C27.4187 50.0937 27.6585 48.9746 27.4453 47.8555Z" fill="#4E336B"/>
<path d="M43.8593 39.2223C43.886 39.2223 43.886 39.2223 43.9126 39.2223C45.5113 38.9558 46.4706 40.8743 45.5113 42.2066C44.632 43.4057 44.2323 44.9778 44.4988 46.6032C44.6853 47.669 45.1117 48.6816 45.7512 49.4809C46.0443 49.854 45.7245 50.4135 45.2715 50.3869C42.6869 50.2004 39.9957 48.3618 39.5693 45.7239C39.0364 42.633 40.9549 39.7286 43.8593 39.2223Z" fill="#4E336B"/>
<path d="M43.9123 39.2223C43.8857 39.2223 43.8857 39.2223 43.859 39.2223C40.9547 39.7019 39.0362 42.6063 39.5424 45.7239C39.7289 46.7897 40.2885 47.7223 41.0346 48.4684C41.0612 48.4417 41.1145 48.4151 41.1412 48.3884C42.3669 47.6957 43.4594 46.8963 44.4186 46.017C44.312 44.6047 44.7117 43.2458 45.4844 42.2066C46.4703 40.8743 45.5111 38.9558 43.9123 39.2223Z" fill="#4E336B"/>
<path d="M48.6016 33.5468C47.3493 26.4324 38.7693 21.9825 29.4167 23.6346C20.0906 25.2866 13.5358 32.401 14.7881 39.5154C15.6408 44.3383 19.8508 47.9088 25.3399 49.2145C27.1518 49.6408 28.7239 50.7599 29.8963 52.1988C31.8414 54.6236 34.8524 56.3822 38.3963 57.1816C39.3555 57.3947 40.4214 57.2349 41.1941 56.5954C42.553 55.4762 42.633 53.5844 41.6204 52.2787C40.9276 51.3994 40.3947 50.3869 39.995 49.3211C39.6753 48.4151 40.0483 47.4026 40.8743 46.923C46.3101 43.8853 49.5076 38.7161 48.6016 33.5468Z" fill="#4E336B"/>
<path d="M48.6016 33.5468C47.3493 26.4324 39.5154 26.2725 30.1894 27.9246C20.8634 29.5766 13.5358 32.3744 14.8148 39.5155C15.6675 44.3383 19.8775 47.9089 25.3665 49.2145C27.1785 49.6408 28.7506 50.76 29.923 52.1988C31.8681 54.6236 34.8791 56.3822 38.423 57.1816C39.3822 57.3948 40.448 57.2349 41.2208 56.5954C42.5797 55.4763 42.6596 53.5844 41.6471 52.2788C40.9543 51.3995 40.4214 50.3869 40.0217 49.3211C39.702 48.4151 40.075 47.4026 40.901 46.923C46.3101 43.8854 49.5076 38.7161 48.6016 33.5468Z" fill="#4E336B"/>
<path d="M23.4748 41.6737C24.2842 41.6737 24.9403 41.0176 24.9403 40.2082C24.9403 39.3988 24.2842 38.7427 23.4748 38.7427C22.6654 38.7427 22.0093 39.3988 22.0093 40.2082C22.0093 41.0176 22.6654 41.6737 23.4748 41.6737Z" fill="#4E336B"/>
<path d="M39.569 38.8226C40.3784 38.8226 41.0345 38.1665 41.0345 37.3571C41.0345 36.5477 40.3784 35.8916 39.569 35.8916C38.7596 35.8916 38.1035 36.5477 38.1035 37.3571C38.1035 38.1665 38.7596 38.8226 39.569 38.8226Z" fill="#4E336B"/>
<path d="M32.4278 49.4545C30.8823 46.8698 30.5359 44.072 31.282 42.1802C31.6551 41.2742 30.7225 40.3416 29.8698 40.8212C29.8698 40.8212 29.8431 40.8212 29.8431 40.8479C27.525 42.2335 27.3917 46.2836 29.5234 49.8808C30.3761 51.3197 31.4685 52.4654 32.6409 53.2382C33.7334 53.9576 34.9325 52.4921 34.0265 51.5595C33.4403 50.9733 32.8808 50.2538 32.4278 49.4545Z" fill="#4E336B"/>
<path d="M36.0783 55.1298C36.5787 55.1298 36.9843 54.7242 36.9843 54.2238C36.9843 53.7235 36.5787 53.3179 36.0783 53.3179C35.578 53.3179 35.1724 53.7235 35.1724 54.2238C35.1724 54.7242 35.578 55.1298 36.0783 55.1298Z" fill="#4E336B"/>
<path d="M39.4355 55.2898C39.4888 55.6362 39.2756 55.9559 38.9292 56.0092C38.5828 56.0625 38.2631 55.8494 38.2098 55.503C38.1565 55.1566 38.3697 54.8368 38.7161 54.7835C39.0625 54.7302 39.3822 54.9434 39.4355 55.2898Z" fill="#4E336B"/>
<path d="M26.3794 42.6329C26.5127 43.4323 25.6067 44.2317 24.381 44.4448C23.1286 44.658 22.0095 44.205 21.8763 43.4056C21.7431 42.6063 22.649 41.8069 23.8747 41.5937C25.1271 41.3806 26.2462 41.8602 26.3794 42.6329Z" fill="#4E336B"/>
<path d="M43.2993 39.6485C43.4326 40.4479 42.5266 41.2473 41.3009 41.4604C40.0486 41.6736 38.9294 41.2206 38.7962 40.4213C38.663 39.6219 39.5689 38.8225 40.7946 38.6093C42.047 38.3962 43.1661 38.8758 43.2993 39.6485Z" fill="#4E336B"/>
<path d="M27.6587 37.1706L13.0568 39.7552C11.6179 40.0217 10.2323 39.0358 9.99252 37.5969L7.08813 21.0499C7.00819 20.517 7.35459 20.0374 7.86086 19.9308L21.5834 17.5327C22.9957 17.2929 24.3279 18.2255 24.5678 19.6377L27.6587 37.1706Z" fill="url(#paint3_linear)"/>
<path d="M19.9578 38.5295L24.9139 37.6502L23.475 29.5765C22.5691 24.4605 17.6929 21.0499 12.6036 21.9558L7.46094 22.8351C7.46094 23.075 7.46094 23.2881 7.51423 23.5279L8.76658 30.6956C9.72583 35.9715 14.7086 39.4621 19.9578 38.5295Z" fill="url(#paint4_linear)"/>
<path d="M33.3875 36.1583L47.9894 33.5737C49.4283 33.3072 50.3875 31.9483 50.1477 30.5094L47.2167 13.9624C47.1368 13.4295 46.6305 13.0831 46.0976 13.1897L32.375 15.6144C30.9628 15.8543 30.0302 17.2132 30.27 18.5988L33.3875 36.1583Z" fill="url(#paint5_linear)"/>
<path d="M41.0881 34.7992L36.132 35.6785L34.6931 27.5782C33.7872 22.4622 37.1978 17.586 42.3138 16.7067L47.4298 15.8008C47.5098 16.0139 47.5897 16.2271 47.6163 16.4669L48.8687 23.6346C49.8546 28.8839 46.3373 33.8933 41.0881 34.7992Z" fill="url(#paint6_linear)"/>
<path d="M19.7715 41.8871C19.7448 41.8871 19.7448 41.8871 19.7182 41.8871C18.1194 42.2068 17.8796 44.3119 19.2119 45.2445C20.4376 46.0705 21.3702 47.4028 21.6633 49.0282C21.8498 50.094 21.7965 51.1865 21.4768 52.1457C21.3436 52.5987 21.8232 53.025 22.2495 52.8385C24.621 51.7727 26.5128 49.1347 26.0332 46.4968C25.4737 43.4325 22.6492 41.3542 19.7715 41.8871Z" fill="url(#paint7_linear)"/>
<path d="M26.0332 46.5234C25.4737 43.4325 22.6492 41.3541 19.7715 41.8871C19.7448 41.8871 19.7448 41.8871 19.7182 41.8871C18.1194 42.2068 17.8796 44.3118 19.2119 45.2444C20.3044 45.9639 21.1304 47.1096 21.5301 48.4686C22.3827 48.815 23.2621 49.1081 24.1947 49.3212C24.6476 49.4278 25.074 49.5877 25.5003 49.7476C25.9799 48.7617 26.2464 47.6426 26.0332 46.5234Z" fill="url(#paint8_linear)"/>
<path d="M42.447 37.8903C42.4737 37.8903 42.4737 37.8903 42.5003 37.8903C44.0991 37.6238 45.0583 39.5423 44.0991 40.8746C43.2198 42.0737 42.8201 43.6458 43.0865 45.2711C43.2731 46.337 43.6994 47.3495 44.3389 48.1489C44.632 48.5219 44.3122 49.0815 43.8593 49.0549C41.2746 48.8683 38.5834 47.0298 38.1571 44.3918C37.5975 41.3009 39.5426 38.3965 42.447 37.8903Z" fill="url(#paint9_linear)"/>
<path d="M42.4738 37.8903C42.4472 37.8903 42.4472 37.8903 42.4206 37.8903C39.5162 38.3699 37.5977 41.2743 38.1039 44.3918C38.2905 45.4577 38.85 46.3903 39.5961 47.1364C39.6228 47.1097 39.676 47.0831 39.7027 47.0564C40.9284 46.3636 42.0209 45.5643 42.9801 44.6849C42.8735 43.2727 43.2732 41.9138 44.046 40.8746C45.0585 39.5423 44.0992 37.6238 42.4738 37.8903Z" fill="url(#paint10_linear)"/>
<path d="M47.1631 32.2147C45.9108 25.1003 37.3308 20.6505 27.9782 22.3025C18.6522 23.9546 12.0973 31.069 13.3497 38.1834C14.2023 43.0063 18.4124 46.5768 23.9014 47.8825C25.7133 48.3088 27.2854 49.4279 28.4578 50.8668C30.403 53.2915 33.4139 55.0502 36.9578 55.8495C37.9171 56.0627 38.9829 55.9028 39.7556 55.2633C41.1145 54.1442 41.1945 52.2524 40.1819 50.9467C39.4892 50.0674 38.9562 49.0549 38.5566 47.989C38.2368 47.0831 38.6098 46.0705 39.4359 45.5909C44.8716 42.5533 48.0957 37.384 47.1631 32.2147Z" fill="url(#paint11_linear)"/>
<path d="M47.1632 32.2148C45.9108 25.1004 38.077 24.9405 28.7509 26.5925C19.4249 28.2446 12.0973 31.0424 13.3763 38.1834C14.229 43.0063 18.439 46.5768 23.9281 47.8825C25.74 48.3088 27.3121 49.4279 28.4845 50.8668C30.4296 53.2916 33.4406 55.0502 36.9845 55.8496C37.9437 56.0627 39.0096 55.9029 39.7823 55.2634C41.1412 54.1442 41.2212 52.2524 40.2086 50.9467C39.5158 50.0674 38.9829 49.0549 38.5832 47.9891C38.2635 47.0831 38.6365 46.0706 39.4625 45.591C44.8716 42.5533 48.0958 37.3841 47.1632 32.2148Z" fill="url(#paint12_linear)"/>
<path d="M22.0632 40.3417C22.8726 40.3417 23.5287 39.6855 23.5287 38.8762C23.5287 38.0668 22.8726 37.4106 22.0632 37.4106C21.2538 37.4106 20.5977 38.0668 20.5977 38.8762C20.5977 39.6855 21.2538 40.3417 22.0632 40.3417Z" fill="white"/>
<path d="M38.1306 37.4906C38.9399 37.4906 39.5961 36.8345 39.5961 36.0251C39.5961 35.2157 38.9399 34.5596 38.1306 34.5596C37.3212 34.5596 36.665 35.2157 36.665 36.0251C36.665 36.8345 37.3212 37.4906 38.1306 37.4906Z" fill="white"/>
<path d="M30.9893 48.1224C29.4439 45.5378 29.0975 42.74 29.8435 40.8481C30.2166 39.9422 29.284 39.0096 28.4313 39.4892C28.4313 39.4892 28.4047 39.4892 28.4047 39.5159C26.0865 40.9014 25.9533 44.9516 28.0849 48.5488C28.9376 49.9876 30.0301 51.1334 31.2025 51.9061C32.2949 52.6256 33.494 51.1601 32.5881 50.2275C32.0018 49.6413 31.4689 48.9218 30.9893 48.1224Z" fill="url(#paint13_linear)"/>
<path d="M34.6398 53.7977C35.1402 53.7977 35.5458 53.3921 35.5458 52.8918C35.5458 52.3914 35.1402 51.9858 34.6398 51.9858C34.1395 51.9858 33.7339 52.3914 33.7339 52.8918C33.7339 53.3921 34.1395 53.7977 34.6398 53.7977Z" fill="url(#paint14_linear)"/>
<path d="M38.0239 53.9578C38.0772 54.3042 37.864 54.6239 37.5176 54.6772C37.1712 54.7305 36.8515 54.5173 36.7982 54.1709C36.7449 53.8245 36.958 53.5048 37.3044 53.4515C37.6242 53.3982 37.9439 53.6114 38.0239 53.9578Z" fill="url(#paint15_linear)"/>
<path d="M24.9673 41.3009C25.1005 42.1002 24.1946 42.8996 22.9689 43.1128C21.7165 43.326 20.5974 42.873 20.4642 42.0736C20.3309 41.2742 21.2369 40.4749 22.4626 40.2617C23.6883 40.0485 24.8341 40.5281 24.9673 41.3009Z" fill="url(#paint16_linear)"/>
<path d="M41.8609 38.3165C41.9941 39.1159 41.0881 39.9153 39.8624 40.1284C38.6101 40.3416 37.491 39.8886 37.3577 39.0892C37.2245 38.2899 38.1305 37.4905 39.3562 37.2773C40.6085 37.0642 41.7276 37.5438 41.8609 38.3165Z" fill="url(#paint17_linear)"/>
</g>
<defs>
<linearGradient id="paint0_linear" x1="11.0133" y1="19.1733" x2="65.0249" y2="62.3267" gradientUnits="userSpaceOnUse">
<stop offset="0.00364583" stop-color="#FAC94C"/>
<stop offset="0.5243" stop-color="#FAC94C"/>
<stop offset="1" stop-color="#EB6D3F"/>
</linearGradient>
<radialGradient id="paint1_radial" cx="0" cy="0" r="1" gradientUnits="userSpaceOnUse" gradientTransform="translate(35.204 38.0267) scale(28.7495 49.3025)">
<stop offset="0.00558659" stop-color="#4A97D3"/>
<stop offset="0.5887" stop-color="#2DA5DA"/>
<stop offset="0.7098" stop-color="#208FCC"/>
<stop offset="0.8373" stop-color="#1C7BBF"/>
<stop offset="0.9078" stop-color="#1C73BA"/>
</radialGradient>
<radialGradient id="paint2_radial" cx="0" cy="0" r="1" gradientUnits="userSpaceOnUse" gradientTransform="translate(30.3142 34.9573) rotate(-9.99736) scale(37.435 41.0429)">
<stop offset="0.0251397" stop-color="#806BAD"/>
<stop offset="0.4323" stop-color="#6D4997"/>
<stop offset="0.4992" stop-color="#664897"/>
<stop offset="0.7087" stop-color="#534596"/>
<stop offset="0.8464" stop-color="#4C4495"/>
</radialGradient>
<linearGradient id="paint3_linear" x1="7.5044" y1="-26.8644" x2="30.1518" y2="101.61" gradientUnits="userSpaceOnUse">
<stop offset="0.00364583" stop-color="#FAB968"/>
<stop offset="0.5243" stop-color="#F28A1D"/>
<stop offset="1" stop-color="#E52C20"/>
</linearGradient>
<linearGradient id="paint4_linear" x1="2.48385" y1="58.004" x2="23.5416" y2="15.3744" gradientUnits="userSpaceOnUse">
<stop offset="0.00364583" stop-color="#FAB968"/>
<stop offset="0.5243" stop-color="#F28A1D"/>
<stop offset="1" stop-color="#E52C20"/>
</linearGradient>
<linearGradient id="paint5_linear" x1="30.4357" y1="-30.8931" x2="53.0832" y2="97.5815" gradientUnits="userSpaceOnUse">
<stop offset="0.00364583" stop-color="#FAB968"/>
<stop offset="0.5243" stop-color="#F28A1D"/>
<stop offset="1" stop-color="#E52C20"/>
</linearGradient>
<linearGradient id="paint6_linear" x1="64.1727" y1="47.143" x2="29.8078" y2="14.2833" gradientUnits="userSpaceOnUse">
<stop offset="0.00364583" stop-color="#FAB968"/>
<stop offset="0.5243" stop-color="#F28A1D"/>
<stop offset="1" stop-color="#E52C20"/>
</linearGradient>
<linearGradient id="paint7_linear" x1="16.4034" y1="33.9914" x2="36.9357" y2="76.6438" gradientUnits="userSpaceOnUse">
<stop stop-color="white"/>
<stop offset="0.516" stop-color="#CDE2E6"/>
<stop offset="1" stop-color="#90A1BB"/>
</linearGradient>
<linearGradient id="paint8_linear" x1="15.3112" y1="57.2969" x2="25.523" y2="40.4716" gradientUnits="userSpaceOnUse">
<stop stop-color="white"/>
<stop offset="0.516" stop-color="#CDE2E6"/>
<stop offset="1" stop-color="#90A1BB"/>
</linearGradient>
<linearGradient id="paint9_linear" x1="42.8805" y1="29.3194" x2="38.1757" y2="76.4218" gradientUnits="userSpaceOnUse">
<stop stop-color="white"/>
<stop offset="0.516" stop-color="#CDE2E6"/>
<stop offset="1" stop-color="#90A1BB"/>
</linearGradient>
<linearGradient id="paint10_linear" x1="44.8134" y1="54.4561" x2="40.6884" y2="39.7887" gradientUnits="userSpaceOnUse">
<stop stop-color="white"/>
<stop offset="0.516" stop-color="#CDE2E6"/>
<stop offset="1" stop-color="#90A1BB"/>
</linearGradient>
<linearGradient id="paint11_linear" x1="25.9029" y1="10.4383" x2="32.0385" y2="45.2442" gradientUnits="userSpaceOnUse">
<stop offset="0.00364583" stop-color="#F59B38"/>
<stop offset="0.5298" stop-color="#F28D20"/>
<stop offset="1" stop-color="#EE711E"/>
</linearGradient>
<linearGradient id="paint12_linear" x1="37.638" y1="77.0092" x2="24.8389" y2="4.4023" gradientUnits="userSpaceOnUse">
<stop offset="0.00364583" stop-color="#FAB968"/>
<stop offset="0.5243" stop-color="#F28A1D"/>
<stop offset="1" stop-color="#E52C20"/>
</linearGradient>
<linearGradient id="paint13_linear" x1="24.6275" y1="52.3841" x2="44.725" y2="28.9445" gradientUnits="userSpaceOnUse">
<stop offset="0.00364583" stop-color="#F59E3C"/>
<stop offset="0.5243" stop-color="#F59A37"/>
<stop offset="1" stop-color="#F39228"/>
</linearGradient>
<linearGradient id="paint14_linear" x1="30.8745" y1="57.4835" x2="50.4319" y2="33.5921" gradientUnits="userSpaceOnUse">
<stop offset="0.00364583" stop-color="#FAB968"/>
<stop offset="0.5243" stop-color="#F28A1D"/>
<stop offset="1" stop-color="#E52C20"/>
</linearGradient>
<linearGradient id="paint15_linear" x1="33.0997" y1="59.3055" x2="52.658" y2="35.4131" gradientUnits="userSpaceOnUse">
<stop offset="0.00364583" stop-color="#F59E3C"/>
<stop offset="0.5243" stop-color="#F59A37"/>
<stop offset="1" stop-color="#F28B1B"/>
</linearGradient>
<linearGradient id="paint16_linear" x1="21.3077" y1="33.8271" x2="24.5213" y2="52.0575" gradientUnits="userSpaceOnUse">
<stop offset="0.00364583" stop-color="#F59D3B"/>
<stop offset="0.5243" stop-color="#F28E21"/>
<stop offset="1" stop-color="#EE701E"/>
</linearGradient>
<linearGradient id="paint17_linear" x1="38.2189" y1="30.846" x2="41.4326" y2="49.0764" gradientUnits="userSpaceOnUse">
<stop offset="0.00364583" stop-color="#F59D3B"/>
<stop offset="0.5243" stop-color="#F28E21"/>
<stop offset="1" stop-color="#EE701E"/>
</linearGradient>
<clipPath id="clip0">
<rect width="69.4389" height="76.5799" fill="white"/>
</clipPath>
</defs>
</svg>
